<svg xmlns="http://www.w3.org/2000/svg" xmlns:xlink="http://www.w3.org/1999/xlink" viewBox="0 0 275 275"><path fill="#FFF" d="M191.461 64.596L153.231 30H115L77.246 65.287H59.998l21.417 19.647"/><path fill="none" stroke="#1A171B" stroke-width="7.857" d="M191.461 64.596L153.231 30H115L77.246 65.287H59.998l21.417 19.647"/><path fill="#4A4794" d="M93.766 157.69L77.508 264.96h112.765l-16.63-107.27z"/><defs><path id="a" d="M93.769 157.69L77.505 264.96H190.27l-16.625-107.27z"/></defs><clipPath id="b"><use xlink:href="#a" overflow="visible"/></clipPath><path clip-path="url(#b)" fill="none" stroke="#1A171B" stroke-width="7.857" d="M120.491 158.431l-9.203 107.27"/><path fill="#8D9FCC" d="M146.031 160.065l8.579 104.898h17.877l17.73-.367-16.337-105.39z"/><defs><path id="c" d="M93.769 157.69L77.505 264.96H190.27l-16.625-107.27z"/></defs><clipPath id="d"><use xlink:href="#c" overflow="visible"/></clipPath><path clip-path="url(#d)" fill="none" stroke="#1A171B" stroke-width="7.857" d="M146.548 158.431l9.203 107.27"/><path fill="none" stroke="#1A171B" stroke-width="7.857" d="M93.766 157.689h79.877l16.63 107.27H77.508z"/><path fill="#4A4794" d="M93.928 137.253h79.551l16.562-71.968H77.738z"/><defs><path id="e" d="M77.736 65.285l16.19 71.967h79.557l16.556-71.967z"/></defs><clipPath id="f"><use xlink:href="#e" overflow="visible"/></clipPath><path clip-path="url(#f)" fill="none" stroke="#1A171B" stroke-width="7.857" d="M120.131 172.312l-9.202-107.27"/><path fill="#8D9FCC" d="M155.53 67.416l-6.605 69.836h24.476l1.734-7.192 14.734-64.027z"/><defs><path id="g" d="M77.736 65.285l16.19 71.967h79.557l16.556-71.967z"/></defs><clipPath id="h"><use xlink:href="#g" overflow="visible"/></clipPath><path clip-path="url(#h)" fill="none" stroke="#1A171B" stroke-width="7.857" d="M146.188 172.312l9.203-107.27"/><path fill="none" stroke="#1A171B" stroke-width="7.857" d="M93.928 137.253h79.551l16.562-71.968H77.738zM101.784 138.09v20.711M164.015 138.09v20.711"/><g fill="none" stroke="#1A171B" stroke-width="7.857"><path d="M187.644 82.179h11.816v38.838c0 2.53 3.551 5.322 7.925 5.322s7.925-2.792 7.899-5.243c-.021.084-.021-54.939-.021-54.939h-25.11"/><ellipse cx="134.003" cy="12.927" rx="7.925" ry="5.473"/></g><path fill="none" stroke="#1A171B" stroke-width="7.857" d="M126.133 14.041l1.98 15.341M141.725 14.041l-1.98 15.341"/></svg>