<svg xmlns="http://www.w3.org/2000/svg" viewBox="0 0 1000 1000"><path fill="#4a4794" d="M232.784 373.061H503.47V593.62H232.784z"/><path fill="#8d9fcc" d="M252.835 102.375h270.686v220.559H252.835z"/><path d="M749.093 350.504a166.04 166.04 0 0 0 57.898-185.345A166.044 166.044 0 0 0 649.466 51.622H350.583a166.05 166.05 0 0 0-157.525 113.537 166.045 166.045 0 0 0 57.898 185.345 166.04 166.04 0 0 0-66.43 136.372 166.058 166.058 0 0 0 72.118 133.452 182.658 182.658 0 0 0-39.908 248.962 182.66 182.66 0 0 0 159.18 78.88 182.66 182.66 0 0 0 150.923-93.711 182.65 182.65 0 0 0 23-88.84V616.178a166.046 166.046 0 0 0 199.255-265.673Zm0-132.837a99.63 99.63 0 0 1-29.18 70.448 99.63 99.63 0 0 1-70.448 29.18h-99.628V118.04h99.628a99.63 99.63 0 0 1 70.448 29.18 99.63 99.63 0 0 1 29.18 70.448Zm-498.138 0a99.63 99.63 0 0 1 29.18-70.448 99.63 99.63 0 0 1 70.448-29.18H483.42v199.255H350.583a99.63 99.63 0 0 1-70.448-29.18 99.63 99.63 0 0 1-29.18-70.448Zm99.628 365.301a99.63 99.63 0 0 1-70.448-29.18 99.63 99.63 0 0 1 0-140.896 99.63 99.63 0 0 1 70.448-29.18H483.42v199.255zm132.837 182.65a116.234 116.234 0 0 1-198.421 82.19 116.24 116.24 0 0 1-25.196-126.669 116.236 116.236 0 0 1 107.385-71.752h116.233v116.232Zm166.045-182.65a99.624 99.624 0 0 1-70.447-170.075 99.63 99.63 0 0 1 108.573-21.597 99.6 99.6 0 0 1 44.711 36.694 99.6 99.6 0 0 1 16.791 55.35 99.63 99.63 0 0 1-29.18 70.448 99.63 99.63 0 0 1-70.448 29.18" fill="#1a171b"/></svg>