<svg xmlns="http://www.w3.org/2000/svg" viewBox="0 0 1000 1000"><path d="m306.645 149.798 138.82 62.23h134.033l143.607-71.803 52.656 277.639-81.377 172.328h-354.23l-95.738-141.213 62.23-299.18Z" fill="#4a4794"/><path d="M778.093 293.129a219.1 219.1 0 0 0-19.718-174.745 29.31 29.31 0 0 0-25.398-14.659 218.99 218.99 0 0 0-175.918 87.959h-87.958a218.98 218.98 0 0 0-175.918-87.959 29.33 29.33 0 0 0-25.398 14.659 219.1 219.1 0 0 0-19.718 174.745 213.07 213.07 0 0 0-28.183 103.792v29.32a205.455 205.455 0 0 0 177.531 203.295 145.87 145.87 0 0 0-30.932 89.902v29.32h-87.959a87.958 87.958 0 0 1-87.959-87.959 146.6 146.6 0 0 0-42.937-103.661 146.6 146.6 0 0 0-103.661-42.937 29.32 29.32 0 0 0-20.732 8.588 29.317 29.317 0 0 0 0 41.464 29.32 29.32 0 0 0 20.732 8.588 87.96 87.96 0 0 1 87.959 87.959c0 38.88 15.445 76.168 42.937 103.661a146.6 146.6 0 0 0 103.661 42.937h87.959v58.639a29.321 29.321 0 0 0 58.64 0V719.439a87.96 87.96 0 0 1 175.918 0v146.598a29.321 29.321 0 0 0 58.64 0V719.439a145.87 145.87 0 0 0-30.932-89.902A205.46 205.46 0 0 0 806.28 426.242v-29.32a213.1 213.1 0 0 0-28.183-103.792ZM747.637 426.24c0 38.88-15.445 76.168-42.937 103.661a146.6 146.6 0 0 1-103.661 42.937H425.121a146.6 146.6 0 0 1-103.661-42.937 146.6 146.6 0 0 1-42.937-103.661v-29.32a152.97 152.97 0 0 1 25.288-82.388 29.32 29.32 0 0 0 4.032-28.184 160.55 160.55 0 0 1 2.896-123.069 160.81 160.81 0 0 1 118.451 73.519 29.31 29.31 0 0 0 24.592 13.523h118.562a29.32 29.32 0 0 0 24.701-13.524 160.8 160.8 0 0 1 50.843-50.265 160.8 160.8 0 0 1 67.608-23.254 160.553 160.553 0 0 1 2.822 123.069 29.65 29.65 0 0 0 3.665 28.038 152.9 152.9 0 0 1 25.655 82.535z" fill="#1a171b"/></svg>