<svg xmlns="http://www.w3.org/2000/svg" viewBox="0 0 1000 1000"><defs><clipPath id="a"><path fill="none" d="M69.484 39.498h861.031v921.004H69.484z"/></clipPath><mask id="b" x="69.231" y="39.498" width="861.52" height="921.004" maskUnits="userSpaceOnUse"><path d="M69.484 39.498v921.004h861.031V39.498z" fill="#fff" data-name="clippath"/></mask></defs><g data-name="Ebene_1" clip-path="url(#a)"><path d="M311.913 836.426 493.456 944.23v-82.52L311.913 748.157z" fill="#4a4794"/><path d="M493.488 857.434 311.913 736.536l194.098-92.358 181.414 110.224-193.938 103.033Z" fill="#8d9fcc"/><g mask="url(#b)"><path d="M81.588 495.383c0 76.574 66.642 157.577 148.866 157.577s148.833-81.003 148.833-157.577z" fill="none" stroke="#1a171b" stroke-width="24.146"/><path d="M379.283 481.151c0-44.893-66.642-81.305-148.865-81.305S81.552 436.259 81.552 481.151s66.642 81.305 148.866 81.305 148.865-36.376 148.865-81.305" fill="#fff"/><path d="M379.283 481.151c0-44.904-66.649-81.305-148.865-81.305S81.552 436.247 81.552 481.151s66.65 81.305 148.866 81.305 148.865-36.402 148.865-81.305Z" fill="none" stroke="#1a171b" stroke-width="24.146"/><path d="M80.544 478.198 230.407 76.176 380.27 478.198M620.744 495.383c0 76.574 66.642 157.577 148.865 157.577s148.83-81.003 148.83-157.577z" fill="none" stroke="#1a171b" stroke-width="24.146"/><path d="M918.439 481.151c0-44.893-66.635-81.305-148.862-81.305s-148.833 36.413-148.833 81.305 66.642 81.305 148.833 81.305 148.862-36.376 148.862-81.305" fill="#fff"/><path d="M918.439 481.151c0-44.893-66.635-81.305-148.862-81.305s-148.833 36.413-148.833 81.305 66.642 81.305 148.833 81.305 148.862-36.376 148.862-81.305Z" fill="none" stroke="#1a171b" stroke-width="24.146"/><path d="M619.711 478.198 769.574 76.176l149.865 402.022M504.885 59.938v699.196M771.663 53.692H229.385M494.916 857.813v81.535l191.394-87.592v-81.572zM487.587 859.367 312.355 750.163v86.153l176.456 111.657" fill="none" stroke="#1a171b" stroke-width="24.146"/></g><path d="m304.78 738.277 200.666-94.364 187.048 114.198" fill="none" stroke="#1a171b" stroke-width="24.146"/></g></svg>