<svg xmlns="http://www.w3.org/2000/svg" viewBox="0 0 1000 1000"><defs><clipPath id="a"><path fill="none" d="M27.548 154.777h944.904v690.446H27.548z"/></clipPath><mask id="b" x="27.548" y="154.777" width="944.91" height="690.446" maskUnits="userSpaceOnUse"><path d="M972.452 154.777H27.548v690.446h944.904z" fill="#fff" data-name="clippath"/></mask></defs><g mask="url(#b)" data-name="Ebene_1" clip-path="url(#a)"><path d="M177.367 845.223c82.736 0 149.819-154.537 149.819-345.223s-67.082-345.223-149.819-345.223S27.548 309.345 27.548 500 94.63 845.223 177.367 845.223" fill="#1a171b"/><path d="M381.028 791.482s-217.12-60.802-286.233-77.081c-64.52-15.153-72.457-410.619 0-430.209 97.484-26.402 286.233-77.081 286.233-77.081" fill="#4a4794"/><path d="M381.028 791.482s-217.12-60.802-286.233-77.081c-64.52-15.153-72.457-410.619 0-430.209 97.484-26.402 286.233-77.081 286.233-77.081" fill="none" stroke="#1a171b" stroke-width="23.434"/><path d="M381.042 791.732c69.894 0 126.572-130.635 126.572-291.764s-56.678-291.763-126.572-291.763-126.573 130.634-126.573 291.763 56.678 291.764 126.573 291.764" fill="#fff"/><path d="M381.042 791.732c69.904 0 126.572-130.627 126.572-291.764s-56.669-291.763-126.572-291.763-126.573 130.627-126.573 291.763 56.669 291.764 126.573 291.764Z" fill="none" stroke="#1a171b" stroke-width="23.434"/><path d="M391.928 440.51s87.486 77.268 178.627-6.561c91.141-83.798 176.72-6.468 176.72-6.468" fill="none" stroke="#8d9fcc" stroke-width="23.434"/><path d="M964.702 478.129s-87.478-77.268-178.622 6.561c-91.141 83.799-176.721 6.468-176.721 6.468" fill="none" stroke="#1a171b" stroke-width="23.434"/></g></svg>